ply
format ascii 1.0
comment Created by Blender 2.63 (sub 0) - www.blender.org, source file: 'weight.blend'
element vertex 128
property float x
property float y
property float z
property float nx
property float ny
property float nz
element face 126
property list uchar uint vertex_indices
end_header
0.177538 0.177538 0.261913 0.000000 0.000000 1.000000
0.208762 0.139490 0.261913 0.000000 0.000000 0.999969
0.224497 0.150004 0.261913 0.605213 0.404370 0.685690
0.190919 0.190919 0.261913 0.514664 0.514664 0.685690
-0.052675 -0.264812 0.214294 -0.195074 -0.980773 0.000000
-0.103325 -0.249448 0.214294 -0.382672 -0.923856 0.000000
-0.103325 -0.249448 -0.738087 -0.382672 -0.923856 0.000000
-0.052675 -0.264812 -0.738087 -0.195074 -0.980773 0.000000
0.103324 -0.249448 0.214294 0.382672 -0.923856 0.000000
0.052674 -0.264812 0.214294 0.195074 -0.980773 0.000000
0.052674 -0.264812 -0.738087 0.195074 -0.980773 0.000000
0.103324 -0.249448 -0.738087 0.382672 -0.923856 0.000000
0.224497 -0.150004 0.214294 0.831446 -0.555559 0.000000
0.190919 -0.190919 0.214294 0.707083 -0.707083 0.000000
0.190919 -0.190919 -0.738087 0.707083 -0.707083 0.000000
0.224497 -0.150004 -0.738087 0.831446 -0.555559 0.000000
0.270000 -0.000000 0.214294 1.000000 0.000000 0.000000
0.264812 -0.052674 0.214294 0.980773 -0.195074 0.000000
0.264812 -0.052674 -0.738087 0.980773 -0.195074 0.000000
0.270000 -0.000000 -0.738087 1.000000 0.000000 0.000000
0.224497 0.150004 0.214294 0.831446 0.555559 0.000000
0.249447 0.103324 0.214294 0.923856 0.382672 0.000000
0.249447 0.103324 -0.738087 0.923856 0.382672 0.000000
0.224497 0.150004 -0.738087 0.831446 0.555559 0.000000
0.103325 0.249447 0.214294 0.382672 0.923856 0.000000
0.150004 0.224497 0.214294 0.555559 0.831446 0.000000
0.150004 0.224497 -0.738087 0.555559 0.831446 0.000000
0.103325 0.249447 -0.738087 0.382672 0.923856 0.000000
-0.103324 0.249448 0.214294 -0.382672 0.923856 0.000000
-0.052674 0.264812 0.214294 -0.195074 0.980773 0.000000
-0.052674 0.264812 -0.738087 -0.195074 0.980773 0.000000
-0.103324 0.249448 -0.738087 -0.382672 0.923856 0.000000
-0.190919 0.190919 0.214294 -0.707083 0.707083 0.000000
-0.150004 0.224497 0.214294 -0.555559 0.831446 0.000000
-0.150004 0.224497 -0.738087 -0.555559 0.831446 0.000000
-0.190919 0.190919 -0.738087 -0.707083 0.707083 0.000000
-0.264812 0.052675 0.214294 -0.980773 0.195074 0.000000
-0.249447 0.103325 0.214294 -0.923856 0.382672 0.000000
-0.249447 0.103325 -0.738087 -0.923856 0.382672 0.000000
-0.264812 0.052675 -0.738087 -0.980773 0.195074 0.000000
-0.249448 -0.103324 0.214294 -0.923856 -0.382672 0.000000
-0.264812 -0.052674 0.214294 -0.980773 -0.195074 0.000000
-0.264812 -0.052674 -0.738087 -0.980773 -0.195074 0.000000
-0.249448 -0.103324 -0.738087 -0.923856 -0.382672 0.000000
-0.150004 -0.224497 0.214294 -0.555559 -0.831446 0.000000
-0.190919 -0.190919 0.214294 -0.707083 -0.707083 0.000000
-0.190919 -0.190919 -0.738087 -0.707083 -0.707083 0.000000
-0.150004 -0.224497 -0.738087 -0.555559 -0.831446 0.000000
-0.000000 -0.270000 0.214294 0.000000 -0.999969 0.000000
-0.000000 -0.270000 -0.738087 0.000000 -0.999969 0.000000
0.150004 -0.224497 0.214294 0.555559 -0.831446 0.000000
0.150004 -0.224497 -0.738087 0.555559 -0.831446 0.000000
0.249447 -0.103325 0.214294 0.923856 -0.382672 0.000000
0.249447 -0.103325 -0.738087 0.923856 -0.382672 0.000000
0.264812 0.052674 0.214294 0.980773 0.195074 0.000000
0.264812 0.052674 -0.738087 0.980773 0.195074 0.000000
0.190919 0.190919 0.214294 0.707083 0.707083 0.000000
0.190919 0.190919 -0.738087 0.707083 0.707083 0.000000
0.052674 0.264812 0.214294 0.195074 0.980773 0.000000
0.052674 0.264812 -0.738087 0.195074 0.980773 0.000000
-0.000000 0.270000 0.214294 0.000000 0.999969 0.000000
-0.000000 0.270000 -0.738087 0.000000 0.999969 0.000000
-0.224497 0.150004 0.214294 -0.831446 0.555559 0.000000
-0.224497 0.150004 -0.738087 -0.831446 0.555559 0.000000
-0.270000 0.000000 0.214294 -1.000000 0.000000 0.000000
-0.270000 0.000000 -0.738087 -1.000000 0.000000 0.000000
-0.224497 -0.150004 0.214294 -0.831446 -0.555559 0.000000
-0.224497 -0.150004 -0.738087 -0.831446 -0.555559 0.000000
-0.052675 -0.264812 0.261913 -0.142003 -0.713889 0.685690
-0.103325 -0.249448 0.261913 -0.278542 -0.672475 0.685690
0.103324 -0.249448 0.261913 0.278542 -0.672475 0.685690
0.052674 -0.264812 0.261913 0.142003 -0.713889 0.685690
0.224497 -0.150004 0.261913 0.605213 -0.404370 0.685690
0.190919 -0.190919 0.261913 0.514664 -0.514664 0.685690
0.270000 -0.000000 0.261913 0.727866 0.000000 0.685690
0.264812 -0.052674 0.261913 0.713889 -0.142003 0.685690
0.249447 0.103324 0.261913 0.672475 0.278542 0.685690
0.103325 0.249447 0.261913 0.278542 0.672475 0.685690
0.150004 0.224497 0.261913 0.404370 0.605213 0.685690
-0.103324 0.249448 0.261913 -0.278542 0.672475 0.685690
-0.052674 0.264812 0.261913 -0.142003 0.713889 0.685690
-0.190919 0.190919 0.261913 -0.514664 0.514695 0.685690
-0.150004 0.224497 0.261913 -0.404370 0.605213 0.685690
-0.264812 0.052675 0.261913 -0.713889 0.142003 0.685690
-0.249447 0.103325 0.261913 -0.672475 0.278542 0.685690
-0.249448 -0.103324 0.261913 -0.672475 -0.278542 0.685690
-0.264812 -0.052674 0.261913 -0.713889 -0.142003 0.685690
-0.150004 -0.224497 0.261913 -0.404370 -0.605213 0.685690
-0.190919 -0.190919 0.261913 -0.514664 -0.514664 0.685690
-0.000000 -0.270000 0.261913 0.000000 -0.727866 0.685690
0.150004 -0.224497 0.261913 0.404370 -0.605213 0.685690
0.249447 -0.103325 0.261913 0.672475 -0.278542 0.685690
0.264812 0.052674 0.261913 0.713889 0.142003 0.685690
0.052674 0.264812 0.261913 0.142003 0.713889 0.685690
-0.000000 0.270000 0.261913 0.000000 0.727866 0.685690
-0.224497 0.150004 0.261913 -0.605213 0.404370 0.685690
-0.270000 0.000000 0.261913 -0.727866 0.000000 0.685690
-0.224497 -0.150004 0.261913 -0.605213 -0.404370 0.685690
-0.000000 0.251076 0.261913 0.000000 0.000000 1.000000
-0.048982 0.246252 0.261913 0.000000 0.000000 1.000000
0.048983 0.246252 0.261913 0.000000 0.000000 0.999969
-0.096082 0.231964 0.261913 0.000000 0.000000 1.000000
0.096083 0.231964 0.261913 0.000000 0.000000 0.999969
-0.139490 0.208762 0.261913 0.000000 0.000000 1.000000
0.139490 0.208762 0.261913 0.000000 0.000000 1.000000
-0.177538 0.177538 0.261913 0.000000 0.000000 1.000000
-0.208762 0.139491 0.261913 0.000000 0.000000 1.000000
-0.231964 0.096083 0.261913 0.000000 0.000000 1.000000
0.231964 0.096083 0.261913 0.000000 0.000000 1.000000
-0.246252 0.048983 0.261913 0.000000 0.000000 0.999969
0.246252 0.048982 0.261913 0.000000 0.000000 1.000000
-0.251076 0.000000 0.261913 0.000000 0.000000 1.000000
0.251076 -0.000000 0.261913 0.000000 0.000000 1.000000
-0.246252 -0.048982 0.261913 0.000000 0.000000 1.000000
0.246252 -0.048983 0.261913 0.000000 0.000000 0.999969
-0.231964 -0.096083 0.261913 0.000000 0.000000 1.000000
0.231964 -0.096083 0.261913 0.000000 0.000000 1.000000
-0.208762 -0.139490 0.261913 0.000000 0.000000 1.000000
0.208762 -0.139491 0.261913 0.000000 0.000000 1.000000
-0.177538 -0.177538 0.261913 0.000000 0.000000 1.000000
0.177538 -0.177538 0.261913 0.000000 0.000000 1.000000
-0.139491 -0.208762 0.261913 0.000000 0.000000 0.999969
0.139490 -0.208762 0.261913 0.000000 0.000000 1.000000
-0.096083 -0.231964 0.261913 0.000000 0.000000 1.000000
0.096083 -0.231964 0.261913 0.000000 0.000000 1.000000
-0.048983 -0.246252 0.261913 0.000000 0.000000 0.999969
0.048982 -0.246252 0.261913 0.000000 0.000000 0.999969
-0.000000 -0.251076 0.261913 0.000000 0.000000 0.999969
4 0 1 2 3
4 4 5 6 7
4 8 9 10 11
4 12 13 14 15
4 16 17 18 19
4 20 21 22 23
4 24 25 26 27
4 28 29 30 31
4 32 33 34 35
4 36 37 38 39
4 40 41 42 43
4 44 45 46 47
4 48 4 7 49
4 50 8 11 51
4 52 12 15 53
4 54 16 19 55
4 56 20 23 57
4 58 24 27 59
4 29 60 61 30
4 62 32 35 63
4 64 36 39 65
4 66 40 43 67
4 5 44 47 6
4 9 48 49 10
4 13 50 51 14
4 17 52 53 18
4 21 54 55 22
4 25 56 57 26
4 60 58 59 61
4 33 28 31 34
4 37 62 63 38
4 41 64 65 42
4 45 66 67 46
4 68 69 5 4
4 70 71 9 8
4 72 73 13 12
4 74 75 17 16
4 2 76 21 20
4 77 78 25 24
4 79 80 29 28
4 81 82 33 32
4 83 84 37 36
4 85 86 41 40
4 87 88 45 44
4 89 68 4 48
4 90 70 8 50
4 91 72 12 52
4 92 74 16 54
4 3 2 20 56
4 93 77 24 58
4 80 94 60 29
4 95 81 32 62
4 96 83 36 64
4 97 85 40 66
4 69 87 44 5
4 71 89 48 9
4 73 90 50 13
4 75 91 52 17
4 76 92 54 21
4 78 3 56 25
4 94 93 58 60
4 82 79 28 33
4 84 95 62 37
4 86 96 64 41
4 88 97 66 45
3 98 99 100
3 99 101 100
3 101 102 100
3 101 103 102
3 103 104 102
3 103 105 104
3 105 0 104
3 105 106 0
3 106 1 0
3 106 107 1
3 107 108 1
3 107 109 108
3 109 110 108
3 109 111 110
3 111 112 110
3 111 113 112
3 113 114 112
3 113 115 114
3 115 116 114
3 115 117 116
3 117 118 116
3 117 119 118
3 119 120 118
3 119 121 120
3 121 122 120
3 121 123 122
3 123 124 122
3 123 125 124
3 125 126 124
3 125 127 126
4 100 102 77 93
4 94 80 99 98
4 106 105 81 95
4 111 109 83 96
4 117 115 85 97
4 123 121 87 69
4 126 127 89 71
4 120 122 90 73
4 114 116 91 75
4 108 110 92 76
4 104 0 3 78
4 93 94 98 100
4 103 101 79 82
4 107 106 95 84
4 113 111 96 86
4 119 117 97 88
4 125 123 69 68
4 124 126 71 70
4 118 120 73 72
4 112 114 75 74
4 1 108 76 2
4 102 104 78 77
4 101 99 80 79
4 105 103 82 81
4 109 107 84 83
4 115 113 86 85
4 121 119 88 87
4 127 125 68 89
4 122 124 70 90
4 116 118 72 91
4 110 112 74 92
